<mxfile host="app.diagrams.net" modified="2023-11-09T16:16:03.217Z" agent="Mozilla/5.0 (Windows NT 10.0; Win64; x64) AppleWebKit/537.36 (KHTML, like Gecko) Chrome/119.0.0.0 Safari/537.36" etag="QXQgfoT5Bft6_EqNHfLF" version="22.1.0" type="device">
  <diagram name="Page-1" id="_oymRP6NVqKDjDqHKXH6">
    <mxGraphModel dx="683" dy="379" grid="1" gridSize="10" guides="1" tooltips="1" connect="1" arrows="1" fold="1" page="1" pageScale="1" pageWidth="827" pageHeight="1169" math="0" shadow="0">
      <root>
        <mxCell id="0" />
        <mxCell id="1" parent="0" />
        <mxCell id="TtotJATQCzqq084KU5HA-1" value="" style="endArrow=classic;html=1;rounded=0;" edge="1" parent="1">
          <mxGeometry width="50" height="50" relative="1" as="geometry">
            <mxPoint x="440" y="560" as="sourcePoint" />
            <mxPoint x="440" y="320" as="targetPoint" />
          </mxGeometry>
        </mxCell>
        <mxCell id="TtotJATQCzqq084KU5HA-2" value="" style="endArrow=classic;html=1;rounded=0;" edge="1" parent="1">
          <mxGeometry width="50" height="50" relative="1" as="geometry">
            <mxPoint x="320" y="440" as="sourcePoint" />
            <mxPoint x="560" y="440" as="targetPoint" />
          </mxGeometry>
        </mxCell>
        <mxCell id="TtotJATQCzqq084KU5HA-7" value="" style="shape=mxgraph.sysml.x;" vertex="1" parent="1">
          <mxGeometry x="470" y="430" width="20" height="20" as="geometry" />
        </mxCell>
        <mxCell id="TtotJATQCzqq084KU5HA-10" value="" style="shape=mxgraph.sysml.x;" vertex="1" parent="1">
          <mxGeometry x="510" y="430" width="20" height="20" as="geometry" />
        </mxCell>
        <mxCell id="TtotJATQCzqq084KU5HA-12" value="" style="ellipse;whiteSpace=wrap;html=1;aspect=fixed;fillColor=none;" vertex="1" parent="1">
          <mxGeometry x="430" y="430" width="20" height="20" as="geometry" />
        </mxCell>
        <mxCell id="TtotJATQCzqq084KU5HA-13" value="" style="ellipse;whiteSpace=wrap;html=1;aspect=fixed;fillColor=none;" vertex="1" parent="1">
          <mxGeometry x="430" y="401" width="20" height="20" as="geometry" />
        </mxCell>
        <mxCell id="TtotJATQCzqq084KU5HA-14" value="" style="ellipse;whiteSpace=wrap;html=1;aspect=fixed;fillColor=none;" vertex="1" parent="1">
          <mxGeometry x="430" y="458" width="20" height="20" as="geometry" />
        </mxCell>
        <mxCell id="TtotJATQCzqq084KU5HA-17" value="&lt;font style=&quot;font-size: 12px;&quot;&gt;0&lt;/font&gt;" style="text;strokeColor=none;fillColor=none;html=1;fontSize=24;fontStyle=0;verticalAlign=middle;align=center;" vertex="1" parent="1">
          <mxGeometry x="400" y="436" width="40" height="22" as="geometry" />
        </mxCell>
        <mxCell id="TtotJATQCzqq084KU5HA-18" value="&lt;font style=&quot;font-size: 12px;&quot;&gt;-0.707107&lt;/font&gt;" style="text;strokeColor=none;fillColor=none;html=1;fontSize=24;fontStyle=0;verticalAlign=middle;align=right;" vertex="1" parent="1">
          <mxGeometry x="385" y="455" width="40" height="22" as="geometry" />
        </mxCell>
        <mxCell id="TtotJATQCzqq084KU5HA-19" value="&lt;font style=&quot;font-size: 12px;&quot;&gt;0.707107&lt;/font&gt;" style="text;strokeColor=none;fillColor=none;html=1;fontSize=24;fontStyle=0;verticalAlign=middle;align=right;" vertex="1" parent="1">
          <mxGeometry x="385" y="398" width="40" height="22" as="geometry" />
        </mxCell>
        <mxCell id="TtotJATQCzqq084KU5HA-20" value="&lt;font style=&quot;font-size: 12px;&quot;&gt;1&lt;/font&gt;" style="text;strokeColor=none;fillColor=none;html=1;fontSize=24;fontStyle=0;verticalAlign=middle;align=center;" vertex="1" parent="1">
          <mxGeometry x="460" y="436" width="40" height="22" as="geometry" />
        </mxCell>
        <mxCell id="TtotJATQCzqq084KU5HA-21" value="&lt;font style=&quot;font-size: 12px;&quot;&gt;&lt;span&gt;2&lt;/span&gt;&lt;/font&gt;" style="text;strokeColor=none;fillColor=none;html=1;fontSize=24;fontStyle=0;verticalAlign=middle;align=center;" vertex="1" parent="1">
          <mxGeometry x="500" y="436" width="40" height="22" as="geometry" />
        </mxCell>
        <mxCell id="TtotJATQCzqq084KU5HA-22" value="Re(z)" style="text;html=1;strokeColor=none;fillColor=none;align=center;verticalAlign=middle;whiteSpace=wrap;rounded=0;" vertex="1" parent="1">
          <mxGeometry x="560" y="425" width="60" height="30" as="geometry" />
        </mxCell>
        <mxCell id="TtotJATQCzqq084KU5HA-23" value="Im(z)" style="text;html=1;strokeColor=none;fillColor=none;align=center;verticalAlign=middle;whiteSpace=wrap;rounded=0;" vertex="1" parent="1">
          <mxGeometry x="410" y="290" width="60" height="30" as="geometry" />
        </mxCell>
      </root>
    </mxGraphModel>
  </diagram>
</mxfile>
